<?xml version="1.0" standalone="no"?>
<!DOCTYPE svg PUBLIC "-//W3C//DTD SVG 20010904//EN"
 "http://www.w3.org/TR/2001/REC-SVG-20010904/DTD/svg10.dtd">
<svg version="1.0" xmlns="http://www.w3.org/2000/svg"
 width="1280.000000pt" height="1168.000000pt" viewBox="0 0 1280.000000 1168.000000"
 preserveAspectRatio="xMidYMid meet">
<g transform="translate(0.000000,1168.000000) scale(0.100000,-0.100000)"
fill="#000000" stroke="none">
<path d="M5600 11670 c-41 -4 -145 -13 -230 -20 -2008 -152 -3814 -1365 -4730
-3175 -278 -549 -458 -1100 -554 -1695 -66 -404 -99 -912 -77 -1164 6 -72 15
-189 21 -261 119 -1495 832 -2906 1970 -3901 933 -815 2087 -1310 3305 -1418
370 -33 424 -36 540 -36 66 0 167 4 225 10 58 5 168 14 245 20 1659 129 3187
974 4202 2325 571 761 950 1669 1092 2620 48 319 56 441 56 870 -1 439 -9 556
-61 895 -28 181 -71 391 -82 402 -7 6 -473 -268 -498 -294 -9 -10 -10 -25 -3
-62 96 -509 107 -1173 28 -1716 -81 -554 -257 -1110 -509 -1605 -367 -722
-890 -1345 -1535 -1830 -737 -554 -1585 -899 -2490 -1014 -479 -60 -1017 -53
-1485 19 -761 118 -1490 403 -2125 832 -580 391 -1085 903 -1470 1489 -417
632 -701 1385 -804 2132 -40 286 -46 387 -46 747 0 360 6 460 46 750 122 878
495 1760 1042 2464 500 644 1121 1151 1842 1506 739 364 1496 540 2325 540
1393 0 2669 -518 3676 -1492 55 -54 106 -98 112 -98 11 0 458 265 480 285 10
9 -26 50 -175 196 -464 455 -919 781 -1493 1068 -655 326 -1355 525 -2065 586
-99 8 -227 19 -285 25 -119 11 -377 11 -490 0z"/>
<path d="M11480 10168 c-140 -17 -249 -63 -489 -207 -186 -112 -220 -135 -212
-149 19 -35 1203 -1997 1209 -2004 12 -12 439 254 506 314 155 139 246 311
292 551 23 124 6 265 -53 427 -28 78 -359 639 -435 738 -138 179 -361 301
-603 331 -100 12 -109 12 -215 -1z"/>
<path d="M9310 8949 c-712 -429 -1695 -1022 -2185 -1316 -489 -295 -896 -542
-904 -549 -11 -10 87 -178 588 -1011 332 -549 608 -1003 614 -1010 9 -9 469
263 2027 1203 2518 1517 2380 1434 2380 1444 0 13 -1208 2014 -1218 2017 -4 2
-590 -348 -1302 -778z"/>
<path d="M2752 8063 l3 -918 906 -3 c756 -2 908 0 918 12 8 10 10 255 9 917
l-3 904 -918 3 -917 2 2 -917z m1752 821 c3 -9 6 -381 6 -828 0 -618 -3 -815
-12 -824 -9 -9 -206 -12 -824 -12 -447 0 -819 3 -828 6 -14 6 -16 89 -16 840
l0 834 834 0 c751 0 834 -2 840 -16z"/>
<path d="M6037 6949 c-93 -149 -867 -1486 -866 -1498 0 -9 76 -140 167 -291
l167 -275 65 3 c474 19 1500 63 1583 68 59 4 107 10 107 14 0 9 -1186 1979
-1200 1994 -4 4 -15 -2 -23 -15z"/>
<path d="M2752 5863 l3 -918 906 -3 c756 -2 908 0 918 12 8 10 10 255 9 917
l-3 904 -918 3 -917 2 2 -917z m1752 821 c3 -9 6 -379 6 -824 0 -722 -2 -810
-16 -824 -14 -14 -102 -16 -824 -16 -445 0 -815 3 -824 6 -14 6 -16 89 -16
840 l0 834 834 0 c751 0 834 -2 840 -16z"/>
<path d="M4975 5134 c-83 -141 -151 -262 -153 -270 -2 -10 10 -12 50 -8 29 2
168 9 308 15 140 6 257 13 259 15 6 6 -293 497 -305 501 -5 2 -77 -112 -159
-253z"/>
<path d="M2750 3665 l0 -915 918 2 917 3 3 477 2 477 98 31 c144 45 502 133
707 174 427 85 844 135 1283 155 201 9 213 13 214 69 2 63 -6 66 -207 59 -629
-21 -1348 -136 -1975 -317 -57 -16 -108 -26 -112 -22 -4 4 -9 167 -10 362 l-3
355 -917 3 -918 2 0 -915z m1750 825 c15 -24 13 -643 -3 -662 -6 -9 -64 -33
-127 -53 -63 -21 -187 -67 -275 -103 -141 -57 -170 -66 -242 -70 -75 -4 -88
-2 -138 23 -81 39 -179 163 -304 383 -29 51 -59 99 -68 107 -34 35 -103 6
-103 -43 0 -27 131 -271 208 -387 66 -99 164 -199 225 -229 88 -44 141 -35
401 73 182 76 412 151 425 138 12 -12 17 -791 5 -821 -6 -14 -89 -16 -840 -16
l-834 0 0 834 c0 786 1 835 18 839 9 3 383 4 830 3 710 -1 814 -3 822 -16z"/>
</g>
</svg>
